<?xml version="1.0" encoding="utf-8"?>
<!-- Generator: Adobe Illustrator 22.0.0, SVG Export Plug-In . SVG Version: 6.00 Build 0)  -->
<svg version="1.1" xmlns="http://www.w3.org/2000/svg" xmlns:xlink="http://www.w3.org/1999/xlink" x="0px" y="0px"
	 viewBox="0 0 119.5 132" style="enable-background:new 0 0 119.5 132;" xml:space="preserve">
<style type="text/css">
	.st0{display:none;}
	.st1{display:inline;}
	.st2{fill:none;stroke:#000000;stroke-width:6;stroke-miterlimit:10;}
	.st3{fill:none;stroke:#FFFFFF;stroke-width:6;stroke-miterlimit:10;}
</style>
<g id="Capa_3" class="st0">
	<g id="Capa_4" class="st1">
		<path class="st2" d="M104.1,29H36c-10.9,0-19.8,8.9-19.8,19.8v33.6c0,10.9,8.9,19.8,19.8,19.8h68.1"/>
		<g>
			<path class="st2" d="M104.1,75.8c-66.4,0-67.3,0-72,0"/>
		</g>
		<g>
			<path class="st2" d="M104.1,56c-66.4,0-67.3,0-72,0"/>
		</g>
	</g>
</g>
<g id="Capa_3_copia">
	<g id="Capa_5">
		<path class="st3" d="M104.1,29H36c-10.9,0-19.8,8.9-19.8,19.8v33.6c0,10.9,8.9,19.8,19.8,19.8h68.1"/>
		<g>
			<path class="st3" d="M104.1,75.8c-66.4,0-67.3,0-72,0"/>
		</g>
		<g>
			<path class="st3" d="M104.1,56c-66.4,0-67.3,0-72,0"/>
		</g>
	</g>
</g>
</svg>
