<?xml version="1.0" encoding="utf-8"?>
<!-- Generator: Adobe Illustrator 22.0.0, SVG Export Plug-In . SVG Version: 6.00 Build 0)  -->
<svg version="1.1" id="Capa_1" xmlns="http://www.w3.org/2000/svg" xmlns:xlink="http://www.w3.org/1999/xlink" x="0px" y="0px"
	 viewBox="0 0 384.5 132" style="enable-background:new 0 0 384.5 132;" xml:space="preserve">
<style type="text/css">
	.st0{fill:none;stroke:#000000;stroke-width:6;stroke-miterlimit:10;}
</style>
<g id="Capa_3">
	<g id="Capa_4">
		<path class="st0" d="M104.1,29H36c-10.9,0-19.8,8.9-19.8,19.8v33.6c0,10.9,8.9,19.8,19.8,19.8h68.1"/>
		<g>
			<path class="st0" d="M104.1,75.8c-66.4,0-67.3,0-72,0"/>
		</g>
		<g>
			<path class="st0" d="M104.1,56c-66.4,0-67.3,0-72,0"/>
		</g>
	</g>
	<g id="Capa_6">
		<g>
			<path d="M160.7,76.8v5.3h-24.4V50.4H160v5.3h-17.1v7.9h13.5v5.1h-13.5v8.1H160.7z"/>
			<path d="M184.5,82.1l-6.9-11.5l-6.8,11.5h-7.6l10.9-16L164,50.4h7.8l6.4,11l6.4-11h7.2l-10.2,15.5l10.8,16.2
				C192.4,82.1,184.5,82.1,184.5,82.1z"/>
			<path d="M220.7,76.8v5.3h-23.3V50.4h6.6v26.4H220.7z"/>
			<path d="M232.8,82.1h-6.6V50.4h6.6V82.1z"/>
			<path d="M241.1,50.4H255c3.8,0,6.6,0.7,8.4,2.2c1.9,1.5,2.8,3.6,2.8,6.4c0,1.8-0.5,3.3-1.6,4.6s-2.5,2.1-4.5,2.4l0,0
				c2.2,0.3,3.9,1.1,5.1,2.5c1.2,1.3,1.8,2.9,1.8,4.8c0,2.8-1,4.9-3,6.4s-4.8,2.3-8.6,2.3H241V50.4H241.1z M254,63.7
				c3.5,0,5.3-1.4,5.3-4.1c0-2.7-1.8-4.1-5.3-4.1h-6.5v8.2C247.5,63.7,254,63.7,254,63.7z M254.9,77.1c1.8,0,3.1-0.4,4-1.1
				s1.3-1.8,1.3-3.1c0-1.3-0.4-2.4-1.3-3.1s-2.2-1.1-4-1.1h-7.3V77L254.9,77.1L254.9,77.1z"/>
			<path d="M285.8,70h-6v12.1h-6.5V50.4h14c3.6,0,6.4,0.9,8.5,2.6c2,1.7,3,4.1,3,7.2c0,2.3-0.6,4.2-1.7,5.7s-2.7,2.6-4.8,3.3
				l8.4,12.9h-7.4L285.8,70z M279.9,64.9h6.6c1.9,0,3.3-0.4,4.2-1.1c0.9-0.8,1.4-1.9,1.4-3.5s-0.5-2.7-1.4-3.5s-2.3-1.1-4.2-1.1
				h-6.6V64.9z"/>
			<path d="M312.6,82.1H306V50.4h6.6V82.1z"/>
			<path d="M340,51.4c2.1,1,4,2.5,5.6,4.6l-4.6,4.5c-0.8-1.7-1.9-3-3.3-3.9c-1.4-0.8-3.1-1.3-5.2-1.3c-1.9,0-3.4,0.4-4.4,1.1
				c-1,0.7-1.6,1.7-1.6,2.9c0,1.1,0.5,2,1.6,2.6s3,1.2,5.7,1.7c2.9,0.5,5.2,1.2,6.9,2c1.7,0.8,2.9,1.8,3.7,3
				c0.8,1.2,1.2,2.7,1.2,4.5c0,2-0.6,3.6-1.7,5.1c-1.1,1.4-2.6,2.5-4.6,3.3s-4.2,1.2-6.7,1.2c-3.5,0-6.3-0.5-8.6-1.5
				c-2.2-1-4-2.5-5.4-4.4l3.9-4.7c1.2,2,2.5,3.3,4.1,4.1s3.4,1.1,5.7,1.1c2,0,3.6-0.3,4.7-1c1.1-0.6,1.6-1.6,1.6-2.7
				c0-0.9-0.5-1.6-1.5-2.2s-2.8-1.1-5.4-1.6c-3-0.6-5.4-1.3-7.1-2.2c-1.8-0.8-3.1-1.9-3.9-3.1c-0.8-1.2-1.2-2.7-1.2-4.5
				c0-1.9,0.5-3.6,1.5-5.1s2.5-2.7,4.5-3.6c2-0.9,4.3-1.3,6.9-1.3C335.4,49.9,337.9,50.4,340,51.4z"/>
		</g>
	</g>
</g>
</svg>
